# AST/ASF file generated using VICON BodyLanguage
# -----------------------------------------------
:version 1.10
:name VICON
:units
  mass 1.0
  length 0.45
  angle deg
:documentation
   .ast/.asf automatically generated from VICON data using
   VICON BodyBuilder and BodyLanguage model FoxedUp or BRILLIANT.MOD
:root
   order TX TY TZ RX RY RZ
   axis XYZ
   position 0 0 0  
   orientation 0 0 0 
:bonedata
  begin
     id 1 
     name lhipjoint
     direction 0.603808 -0.713975 0.35448 
     length 2.2025 
     axis 0 0 0  XYZ
  end
  begin
     id 2 
     name lfemur
     direction 0.34202 -0.939693 0  
     length 6.55877  
     axis 0 0 20  XYZ
    dof rx ry rz
    limits (-160.0 20.0)
           (-70.0 70.0)
           (-60.0 70.0)
  end
  begin
     id 3 
     name ltibia
     direction 0.34202 -0.939693 0   
     length 6.80302   
     axis 0 0 20   XYZ
    dof rx
    limits (-10.0 170.0)
  end
  begin
     id 4 
     name lfoot
     direction 0.091848 -0.25235 0.963267   
     length 2.03446   
     axis -90 7.62852e-016 20   XYZ
    dof rx rz
    limits (-45.0 90.0)
           (-70.0 20.0)
  end
  begin
     id 5 
     name ltoes
     direction 1.53608e-011 -4.21925e-011 1   
     length 1.02033   
     axis -90 7.62852e-016 20   XYZ
    dof rx
    limits (-90.0 20.0)
  end
  begin
     id 6 
     name rhipjoint
     direction -0.587285 -0.724947 0.359928   
     length 2.16916  
     axis 0 0 0  XYZ 
  end
  begin
     id 7 
     name rfemur
     direction -0.34202 -0.939693 0   
     length 6.43173   
     axis 0 0 -20   XYZ
    dof rx ry rz
    limits (-160.0 20.0)
           (-70.0 70.0)
           (-70.0 60.0)
  end
  begin
     id 8 
     name rtibia
     direction -0.34202 -0.939693 0   
     length 6.70662   
     axis 0 0 -20   XYZ
    dof rx
    limits (-10.0 170.0)
 end
 begin
     id 9 
     name rfoot
     direction -0.11854 -0.325686 0.938018   
     length 2.0773  
     axis -90 -7.62852e-016 -20   XYZ
    dof rx rz
    limits (-45.0 90.0)
           (-20.0 70.0)
  end
  begin
     id 10 
     name rtoes
     direction -1.53547e-011 -4.21838e-011 1   
     length 1.03267   
     axis -90 -7.62852e-016 -20   XYZ
    dof rx
    limits (-90.0 20.0)
  end
  begin
     id 11 
     name lowerback
     direction -0.0286554 0.999539 0.0100613   
     length 2.08751   
     axis 0 0 0   XYZ
    dof rx ry rz
    limits (-20.0 45.0)
           (-30.0 30.0)
           (-30.0 30.0)
  end
  begin
     id 12 
     name upperback
     direction 0.0227093 0.999705 -0.00860929   
     length 2.08517   
     axis 0 0 0   XYZ
    dof rx ry rz
    limits (-20.0 45.0)
           (-30.0 30.0)
           (-30.0 30.0)
  end
  begin
     id 13 
     name thorax
     direction 0.0351627 0.999285 -0.013892   
     length 2.08412   
     axis 0 0 0   XYZ
    dof rx ry rz
    limits (-20.0 45.0)
           (-30.0 30.0)
           (-30.0 30.0)
  end
  begin
     id 14 
     name lowerneck
     direction -0.0696283 0.997344 0.0213922   
     length 1.44164   
     axis 0 0 0   XYZ
    dof rx ry rz
    limits (-20.0 45.0)
           (-30.0 30.0)
           (-30.0 30.0)
  end
  begin
     id 15 
     name upperneck
     direction 0.0531 0.990412 -0.127531   
     length 1.45022   
     axis 0 0 0   XYZ
    dof rx ry rz
    limits (-20.0 45.0)
           (-30.0 30.0)
           (-30.0 30.0)
  end
  begin
     id 16
     name head
     direction 0.0188154 0.998548 -0.0504727  
     length 1.45845  
     axis 0 0 0   XYZ
    dof rx ry rz
    limits (-20.0 45.0)
           (-30.0 30.0)
           (-30.0 30.0)
  end
  begin
     id 17 
     name lclavicle
     direction 0.961559 0.260051 0.088188  
     length 2.86057  
     axis 0 0 0   XYZ
    dof ry rz
    limits (-20.0 10.0)
           (0.0 20.0)
  end
  begin
     id 18 
     name lhumerus
     direction 1 -4.48959e-011 2.88185e-027   
     length 4.36901   
     axis 180 -30 -90   XYZ
    dof rx ry rz
    limits (-60.0 90.0)
           (-90.0 90.0)
           (-90.0 90.0)
  end
  begin
     id 19
     name lradius
     direction 1 -4.48965e-011 -3.92618e-028   
     length 3.21737   
     axis 180 -30 -90   XYZ
    dof rx
    limits (-10.0 170.0)
  end
  begin
     id 20
     name lwrist
     direction 1 -4.49037e-011 2.57246e-027   
     length 1.60869   
     axis -1.61769e-015 90 90   XYZ
    dof ry
    limits (-180.0 0.0)
 end
  begin
     id 21 
     name lhand
     direction 1 -4.48807e-011 5.12958e-027   
     length 0.564313   
     axis -3.27988e-015 90 90   XYZ
    dof rx rz
    limits (-90.0 90.0)
           (-45.0 45.0)
  end
  begin
     id 22 
     name lfingers
     direction 1 -4.48879e-011 1.02687e-026   
     length 0.454963   
     axis -6.5598e-015 90 90   XYZ
    dof rx
    limits (0.0 90.0)
  end
  begin
     id 23
     name lthumb
     direction 0.707107 -6.3475e-011 0.707107   
     length 0.653239   
     axis -90 45 2.19363e-014   XYZ
    dof rx rz
    limits (-45.0 45.0)
           (-45.0 45.0)
  end
  begin
     id 24 
     name rclavicle
     direction -0.954677 0.253915 0.155304   
     length 3.11497  
     axis 0 0 0   XYZ 
    dof ry rz
    limits (-10.0 20.0)
           (-20.0 0.0)
  end
  begin
     id 25 
     name rhumerus
     direction -1 -4.48958e-011 -8.20169e-028  
     length 4.34118   
     axis 180 30 90   XYZ
    dof rx ry rz
    limits (-90.0 60.0)
           (-90.0 90.0)
           (-90.0 90.0)
  end
  begin
     id 26 
     name rradius
     direction -1 -4.48978e-011 1.5676e-027   
     length 3.09531   
     axis 180 30 90   XYZ
    dof rx
    limits (-10.0 170.0)
  end
  begin
     id 27 
     name rwrist
     direction -1 -4.49001e-011 2.57123e-027   
     length 1.54765   
     axis -1.61769e-015 -90 -90   XYZ
    dof ry
    limits (-180.0 0.0)
  end
  begin
     id 28
     name rhand
     direction -1 -4.48847e-011 5.13225e-027   
     length 0.597446   
     axis -3.27988e-015 -90 -90   XYZ
    dof rx rz
    limits (-90.0 90.0)
           (-45.0 45.0)
  end
  begin
     id 29
     name rfingers
     direction -1 -4.49094e-011 1.02974e-026   
     length 0.481677   
     axis -6.5598e-015 -90 -90   XYZ
    dof rx
    limits (0.0 90.0)
  end
  begin
     id 30
     name rthumb
     direction -0.707107 -6.34859e-011 0.707107   
     length 0.691594   
     axis -90 -45 -2.19363e-014   XYZ
    dof rx rz
    limits (-45.0 45.0)
           (-45.0 45.0)
  end
:hierarchy
  begin
    root lhipjoint rhipjoint lowerback
    lhipjoint lfemur
    lfemur ltibia
    ltibia lfoot
    lfoot ltoes
    rhipjoint rfemur
    rfemur rtibia
    rtibia rfoot
    rfoot rtoes
    lowerback upperback
    upperback thorax
    thorax lowerneck lclavicle rclavicle
    lowerneck upperneck
    upperneck head
    lclavicle lhumerus
    lhumerus lradius
    lradius lwrist
    lwrist lhand lthumb
    lhand lfingers
    rclavicle rhumerus
    rhumerus rradius
    rradius rwrist
    rwrist rhand rthumb
    rhand rfingers
  end

#!OML:ASF I:\Acrobat_Osman\acrobat\cartwheel_test 2\Patient 1\Session 1\acrobat.ASF
:FULLY-SPECIFIED
:DEGREES
543
root 10.3908 15.9656 -17.6493 33.6312 -40.7691 -370.358
lowerback 7.4811 -0.177755 -7.23999
upperback 1.94771 -0.746667 2.12778
thorax -2.04694 -0.359619 6.37848
lowerneck -12.4662 0.661832 -4.30187
upperneck -5.63213 1.38468 7.98214
head 0.268964 0.819842 3.41879
rclavicle -2.38542e-015 -4.77083e-015
rhumerus -40.5191 -8.26062 300.914
rradius 99.8277
rwrist -357.255
rhand -35.3095 50.9855
rfingers 7.12502
rthumb -8.44345 21.1743
lclavicle -2.38542e-015 -4.77083e-015
lhumerus -24.1638 -13.7197 72.4512
lradius 125.263
lwrist 26.5081
lhand -19.2032 35.139
lfingers 7.12502
lthumb 7.109 64.9996
rfemur -46.4256 11.21 19.1408
rtibia 41.9684
rfoot -19.4269 -0.340406
rtoes 17.2839
lfemur -31.9482 -3.91424 -20.8148
ltibia 54.991
lfoot -20.7284 6.48727
ltoes -43.5816
544
root 10.3683 15.9977 -17.8916 34.5383 -43.0437 -372.046
lowerback 7.48197 0.602754 -6.50979
upperback 2.03414 0.34223 2.11235
thorax -2.13317 0.180133 5.8444
lowerneck -12.2237 0.726222 -4.27157
upperneck -5.32149 1.44988 7.6545
head 0.325122 0.85031 3.29995
rclavicle 2.62396e-014 -5.56597e-015
rhumerus -39.9445 -7.1775 300.214
rradius 100.193
rwrist -357.562
rhand -34.9644 50.8303
rfingers 7.12502
rthumb -8.11043 21.006
lclavicle 2.62396e-014 -5.56597e-015
lhumerus -25.7 -13.2029 72.128
lradius 124.297
lwrist 26.6266
lhand -19.1215 34.769
lfingers 7.12502
lthumb 7.18785 64.627
rfemur -42.669 11.9388 18.9614
rtibia 42.6181
rfoot -19.8884 -1.76836
rtoes 3.95675
lfemur -35.1825 -6.0199 -20.9009
ltibia 54.4383
lfoot -22.147 6.20967
ltoes -43.738
545
root 10.3349 15.9728 -18.0861 34.806 -46.4092 -375.223
lowerback 8.56866 1.81364 -5.35413
upperback 2.60974 1.96903 2.08629
thorax -2.34321 0.970698 4.9809
lowerneck -11.597 0.937988 -4.60472
upperneck -5.20031 1.76079 7.73019
head 0.234663 1.00573 3.39332
rclavicle 1.43125e-014 1.35174e-014
rhumerus -38.6795 -5.87578 299.78
rradius 100.166
rwrist -357.227
rhand -34.0377 50.4569
rfingers 7.12502
rthumb -7.216 20.6
lclavicle 1.43125e-014 1.35174e-014
lhumerus -27.7764 -12.2401 71.626
lradius 123.713
lwrist 26.6057
lhand -19.2411 34.7877
lfingers 7.12502
lthumb 7.07247 64.6495
rfemur -36.082 11.5233 19.7245
rtibia 42.6017
rfoot -18.4801 -0.647195
rtoes -6.35236
lfemur -36.3722 -7.68587 -20.4441
ltibia 54.1673
lfoot -23.1073 4.50496
ltoes -39.6903
546
root 10.3411 15.9157 -18.3923 37.592 -48.3536 -378.154
lowerback 8.10712 2.46628 -4.38493
upperback 2.22594 2.94234 2.26403
thorax -2.57284 1.4688 4.51292
lowerneck -10.4225 1.2757 -4.35459
upperneck -5.97078 2.18745 7.27796
head -0.23996 1.18163 3.1773
rclavicle -6.2816e-014 -4.69132e-014
rhumerus -36.9197 -4.8812 299.414
rradius 99.9351
rwrist -356.399
rhand -33.2053 50.2529
rfingers 7.12502
rthumb -6.41238 20.37
lclavicle -6.2816e-014 -4.69132e-014
lhumerus -29.8114 -11.1225 70.649
lradius 123.3
lwrist 27.0231
lhand -19.4951 34.6853
lfingers 7.12502
lthumb 6.8272 64.5552
rfemur -32.3391 11.5358 19.8587
rtibia 42.0324
rfoot -20.7031 -7.07303
rtoes -5.82153
lfemur -40.3321 -7.513 -19.017
ltibia 54.1877
lfoot -21.6603 2.39611
ltoes -44.3926
547
root 10.3159 15.8417 -18.636 40.2295 -50.6659 -382.255
lowerback 8.0848 3.322 -3.15183
upperback 2.21223 4.18155 2.54566
thorax -2.64825 2.07876 3.96937
lowerneck -10.103 1.6013 -3.79872
upperneck -5.62047 2.53776 6.61348
head -0.190421 1.34375 2.85081
rclavicle -1.98785e-014 4.05521e-014
rhumerus -34.8393 -3.54671 299.252
rradius 99.8751
rwrist -355.888
rhand -33.2544 49.8538
rfingers 7.12502
rthumb -6.45977 19.9723
lclavicle -1.98785e-014 4.05521e-014
lhumerus -31.9048 -9.76795 69.3802
lradius 122.972
lwrist 27.8322
lhand -19.7067 34.7034
lfingers 7.12502
lthumb 6.62298 64.5798
rfemur -26.934 11.7436 20.0932
rtibia 40.928
rfoot -17.8252 -5.65064
rtoes -11.5996
lfemur -42.4372 -6.57705 -17.553
ltibia 54.3316
lfoot -20.3317 1.48503
ltoes -43.5902
548
root 10.2643 15.7408 -18.8397 43.7688 -52.7659 -386.911
lowerback 7.15863 4.08881 -1.92564
upperback 2.11744 5.32093 3.02776
thorax -2.27632 2.63745 3.71175
lowerneck -10.0695 1.86695 -3.18027
upperneck -4.60807 2.78707 5.7265
head 0.131187 1.46601 2.45245
rclavicle 3.57812e-014 3.10104e-014
rhumerus -32.6957 -1.6875 299.536
rradius 100.05
rwrist -356.302
rhand -33.5339 49.2398
rfingers 7.12502
rthumb -6.72966 19.3668
lclavicle 3.57812e-014 3.10104e-014
lhumerus -34.0996 -8.12739 68.114
lradius 122.707
lwrist 28.6397
lhand -19.9178 35.0125
lfingers 7.12502
lthumb 6.41916 64.8952
rfemur -21.8608 12.0369 20.0909
rtibia 39.7231
rfoot -17.6831 -7.22571
rtoes -15.0643
lfemur -44.4557 -5.7773 -15.8734
ltibia 54.5911
lfoot -18.2057 -5.42782
ltoes -40.2033
549
root 10.1993 15.5784 -19.0409 46.842 -54.3055 -390.968
lowerback 6.04297 4.59741 -0.843177
upperback 2.05259 6.07819 3.56455
thorax -1.73303 3.00812 3.67469
lowerneck -9.82126 2.13939 -2.72694
upperneck -3.65611 3.07366 4.97536
head 0.39302 1.60558 2.13616
rclavicle -8.22969e-014 2.06736e-014
rhumerus -30.3197 -0.165819 300.049
rradius 99.6909
rwrist -357.04
rhand -33.3787 49.1279
rfingers 7.12502
rthumb -6.57981 19.2501
lclavicle -8.22969e-014 2.06736e-014
lhumerus -36.2206 -6.22387 66.7502
lradius 122.459
lwrist 28.9773
lhand -20.007 35.6236
lfingers 7.12502
lthumb 6.33303 65.5089
rfemur -16.9154 11.4909 19.9959
rtibia 38.6831
rfoot -15.351 -9.25796
rtoes -11.1489
lfemur -45.6452 -4.27998 -15.3329
ltibia 55.4488
lfoot -15.6597 -5.60356
ltoes -38.9583
550
root 10.1035 15.3735 -19.207 49.4676 -55.8365 -394.715
lowerback 4.59196 4.97733 0.257512
upperback 2.12824 6.61437 3.91163
thorax -0.805581 3.26892 3.51559
lowerneck -9.42044 2.4515 -2.45943
upperneck -2.64256 3.4366 4.70039
head 0.639638 1.78919 2.01534
rclavicle 5.1684e-014 3.89618e-014
rhumerus -27.6216 1.27932 300.462
rradius 98.9594
rwrist -357.852
rhand -33.1116 48.7116
rfingers 7.12502
rthumb -6.32193 18.8259
lclavicle 5.1684e-014 3.89618e-014
lhumerus -38.0679 -4.26196 64.9531
lradius 122.072
lwrist 28.8221
lhand -20.1592 36.1242
lfingers 7.12502
lthumb 6.18613 66.0138
rfemur -12.0867 9.48734 19.3982
rtibia 38.0799
rfoot -13.9524 -14.328
rtoes -19.2867
lfemur -46.0529 -2.57454 -15.609
ltibia 56.4082
lfoot -12.1936 -2.32409
ltoes -22.9932
551
root 10.0263 15.107 -19.4007 51.3507 -57.0765 -397.918
lowerback 3.63951 5.24763 1.38359
upperback 2.08538 6.98426 4.09874
thorax -0.231793 3.45496 3.16112
lowerneck -8.5478 2.72319 -2.03934
upperneck -1.88871 3.73534 4.6469
head 0.725683 1.93533 1.92429
rclavicle -3.81667e-014 4.05521e-014
rhumerus -25.083 2.73433 300.802
rradius 98.3169
rwrist -358.388
rhand -33.0664 47.7589
rfingers 7.12502
rthumb -6.27833 17.872
lclavicle -3.81667e-014 4.05521e-014
lhumerus -39.5083 -2.71301 62.7498
lradius 121.438
lwrist 28.2595
lhand -20.2333 36.2705
lfingers 7.12502
lthumb 6.11461 66.1622
rfemur -7.33033 7.54097 18.4222
rtibia 37.8611
rfoot -13.713 -16.6114
rtoes -18.4076
lfemur -44.7412 -0.00998206 -16.8005
ltibia 58.2315
lfoot -16.9102 3.80297
ltoes -21.8242
552
root 9.96412 14.8096 -19.6091 52.9389 -57.9375 -401.025
lowerback 3.49089 5.46771 2.58033
upperback 1.91493 7.3065 4.38368
thorax -0.226415 3.6173 2.79429
lowerneck -7.30027 2.97586 -1.42947
upperneck -1.75176 4.01821 4.3158
head 0.561225 2.05906 1.69029
rclavicle 9.58142e-014 -1.27222e-014
rhumerus -22.7638 3.90575 301.07
rradius 97.6533
rwrist -357.925
rhand -33.1256 46.9604
rfingers 7.12502
rthumb -6.33544 17.0751
lclavicle 9.58142e-014 -1.27222e-014
lhumerus -40.6849 -1.40689 60.5899
lradius 120.789
lwrist 27.6191
lhand -20.1901 36.2945
lfingers 7.12502
lthumb 6.15627 66.185
rfemur -2.91706 6.5499 17.6232
rtibia 38.3127
rfoot -13.7089 -18.8479
rtoes -17.2172
lfemur -43.6137 2.0452 -17.4825
ltibia 59.677
lfoot -19.6539 10.8326
ltoes -23.5178
553
root 9.91526 14.5922 -19.7793 54.8978 -58.3552 -404.596
lowerback 4.00239 5.63541 3.99027
upperback 1.73975 7.60062 4.94622
thorax -0.59239 3.75427 2.53174
lowerneck -6.32761 3.27561 -0.968395
upperneck -1.80681 4.3929 3.73861
head 0.387606 2.22912 1.41075
rclavicle 3.57812e-014 -1.51076e-014
rhumerus -20.7743 4.68559 301.105
rradius 97.3824
rwrist -356.4
rhand -32.9551 46.732
rfingers 7.12502
rthumb -6.1709 16.8418
lclavicle 3.57812e-014 -1.51076e-014
lhumerus -41.6642 0.174275 58.8491
lradius 120.158
lwrist 27.2396
lhand -20.0823 36.3092
lfingers 7.12502
lthumb 6.26039 66.1967
rfemur 0.815981 6.09103 17.3981
rtibia 39.2938
rfoot -12.7915 -19.5344
rtoes -16.3155
lfemur -42.9697 2.31273 -16.074
ltibia 61.4112
lfoot -24.0977 14.6881
ltoes -16.7288
554
root 9.8837 14.3847 -20.0121 56.3694 -59.0168 -406.801
lowerback 4.26726 5.74795 3.94847
upperback 1.49221 7.7854 5.46459
thorax -1.07671 3.8372 3.03055
lowerneck -5.92961 3.56029 -0.808381
upperneck -1.73266 4.76463 3.31812
head 0.346777 2.40852 1.24938
rclavicle 1.08536e-013 6.44062e-014
rhumerus -19.4356 4.60463 300.673
rradius 97.4265
rwrist -354.471
rhand -32.6665 47.3121
rfingers 7.12502
rthumb -5.89219 17.4141
lclavicle 1.08536e-013 6.44062e-014
lhumerus -42.4077 2.02588 57.529
lradius 119.486
lwrist 27.1349
lhand -19.8926 36.4108
lfingers 7.12502
lthumb 6.44348 66.2928
rfemur 2.8973 6.05108 16.9849
rtibia 41.0701
rfoot -12.0067 -18.6942
rtoes -14.1174
lfemur -43.3977 2.77719 -15.392
ltibia 63.0728
lfoot -24.3305 20.3001
ltoes -27.4142
555
root 9.88982 14.2754 -20.2354 56.6344 -60.6347 -405.648
lowerback 3.11375 5.67553 2.04215
upperback 1.03449 7.6097 5.29274
thorax -1.12794 3.77054 3.9863
lowerneck -5.91948 3.76032 -0.874823
upperneck -2.03954 5.04106 3.30315
head 0.242289 2.54322 1.25516
rclavicle -1.25234e-014 2.06736e-014
rhumerus -18.8221 4.41427 300.219
rradius 97.8644
rwrist -353.64
rhand -32.7094 47.8764
rfingers 7.12502
rthumb -5.93363 17.9795
lclavicle -1.25234e-014 2.06736e-014
lhumerus -42.7973 4.02178 56.5128
lradius 118.843
lwrist 27.2364
lhand -20.2676 36.5536
lfingers 7.12502
lthumb 6.08145 66.4463
rfemur 2.40758 4.86706 14.5882
rtibia 43.2644
rfoot -10.1282 -19.6206
rtoes -14.8186
lfemur -46.259 3.50069 -16.6647
ltibia 65.1588
lfoot -26.1153 19.3821
ltoes -22.4798
